<svg width="167" height="167" viewBox="0 0 167 167" fill="none" xmlns="http://www.w3.org/2000/svg">
<path d="M166.89 0H0V166.89H166.89V0Z" fill="black"/>
<path d="M85 88.7C85 75.93 95.35 65.58 108.12 65.58C120.89 65.58 131.24 75.93 131.24 88.7C131.24 101.47 120.89 111.82 108.12 111.82C95.35 111.82 85 101.47 85 88.7Z" fill="#41BCFE"/>
<path d="M38.76 134.94C38.76 122.17 49.11 111.82 61.88 111.82H85V134.94C85 147.71 74.65 158.06 61.88 158.06C49.11 158.06 38.76 147.71 38.76 134.94Z" fill="#40CF83"/>
<path d="M85 19.34V65.58H108.12C120.89 65.58 131.24 55.23 131.24 42.46C131.24 29.69 120.89 19.34 108.12 19.34H85Z" fill="#F67263"/>
<path d="M38.76 42.46C38.76 55.23 49.11 65.58 61.88 65.58H85V19.34H61.88C49.11 19.34 38.76 29.69 38.76 42.46Z" fill="#F24E1F"/>
<path d="M38.76 88.7C38.76 101.47 49.11 111.82 61.88 111.82H85V65.58H61.88C49.11 65.58 38.76 75.93 38.76 88.7Z" fill="#A259FF"/>
</svg>
