<svg width="28" height="28" viewBox="0 0 28 28" fill="none" xmlns="http://www.w3.org/2000/svg">
<path d="M13.92 0C6.2321 0 0 6.2321 0 13.92C0 21.6079 6.2321 27.84 13.92 27.84C21.6079 27.84 27.84 21.6079 27.84 13.92C27.84 6.2321 21.6079 0 13.92 0ZM19.2734 15.7049C19.2734 15.7049 20.5044 16.92 20.8075 17.4841C20.8162 17.4957 20.8205 17.5073 20.8234 17.5131C20.9467 17.7204 20.9757 17.8814 20.9148 18.0017C20.8133 18.2018 20.4653 18.3004 20.3464 18.3092H18.1714C18.0206 18.3092 17.7045 18.27 17.3217 18.0061C17.0273 17.8002 16.7374 17.4623 16.4546 17.1332C16.0326 16.6431 15.6672 16.2197 15.299 16.2197C15.2522 16.2196 15.2057 16.227 15.1612 16.2414C14.8828 16.3314 14.5261 16.7286 14.5261 17.7871C14.5261 18.1178 14.2651 18.3077 14.0809 18.3077H13.0848C12.7455 18.3077 10.9779 18.1888 9.41195 16.5373C7.49505 14.5145 5.76955 10.4574 5.75505 10.4197C5.6463 10.1572 5.87105 10.0166 6.1161 10.0166H8.31285C8.60575 10.0166 8.70145 10.1949 8.76815 10.353C8.84645 10.5371 9.13355 11.2694 9.6048 12.093C10.3689 13.4357 10.8373 13.9809 11.2128 13.9809C11.2833 13.9801 11.3524 13.9622 11.4144 13.9287C11.9045 13.6561 11.8131 11.9088 11.7914 11.5463C11.7914 11.4782 11.7899 10.7648 11.5391 10.4226C11.3593 10.1746 11.0533 10.0804 10.8677 10.0456C10.9429 9.94194 11.0418 9.85789 11.1563 9.80055C11.4927 9.63235 12.0988 9.6077 12.7006 9.6077H13.0355C13.688 9.6164 13.8562 9.65845 14.0926 9.7179C14.5711 9.83245 14.5812 10.1413 14.5392 11.1983C14.5261 11.4985 14.5131 11.8378 14.5131 12.238C14.5131 12.325 14.5087 12.4178 14.5087 12.5164C14.4942 13.0543 14.4768 13.6648 14.8567 13.9156C14.9063 13.9467 14.9635 13.9633 15.022 13.9635C15.1539 13.9635 15.5512 13.9635 16.6271 12.1177C16.959 11.5235 17.2473 10.9061 17.4899 10.2703C17.5117 10.2326 17.5754 10.1166 17.6509 10.0717C17.7065 10.0433 17.7682 10.0289 17.8306 10.0296H20.4131C20.6944 10.0296 20.8872 10.0717 20.9235 10.1804C20.9873 10.353 20.9119 10.8793 19.733 12.4758L19.2067 13.1704C18.1381 14.571 18.1381 14.6421 19.2734 15.7049Z" fill="black"/>
</svg>
